#!OML:ASF G:\JayActor3\Patient Classification 1\Patient 1\Session 6\male.ASF
:FULLY-SPECIFIED
:DEGREES
1569
root -25.7492 16.5978 12.378 519.794 -74.5531 -523.112
lowerback 4.97483 -2.60653 -0.667279
upperback -1.85729 -3.50255 0.641273
thorax -4.62797 -1.70939 1.34633
lowerneck 8.38702 -9.55035 -6.61831
upperneck 0.205492 -13.3461 6.99565
head -0.396168 -6.84316 3.69361
rclavicle -2.33075e-014 1.11319e-014
rhumerus -37.3601 9.5991 -81.9856
rradius 32.0907
rwrist 9.0395
rhand -9.51387 -1.74534
rfingers 7.12502
rthumb 16.4517 -31.0678
lclavicle -2.33075e-014 1.11319e-014
lhumerus -54.216 12.32 61.9087
lradius 30.0364
lwrist 24.6257
lhand -9.7557 9.21912
lfingers 7.12502
lthumb 16.2189 38.5607
rfemur 7.13707 18.6876 24.2886
rtibia 42.2533
rfoot -8.15401 -7.42539
rtoes -2.80268
lfemur -5.98381 5.9701 -7.87408
ltibia 22.9148
lfoot -13.211 -1.00011
ltoes -5.26352
1570
root -25.8149 16.6094 12.4061 520.908 -73.6179 -524.223
lowerback 5.2418 -2.64879 -0.901666
upperback -1.96998 -3.58012 0.5852
thorax -4.88435 -1.7381 1.44418
lowerneck 8.47087 -9.35945 -6.58341
upperneck 0.21636 -13.0971 7.10407
head -0.421368 -6.72413 3.73043
rclavicle -1.61016e-014 -1.31198e-014
rhumerus -37.6408 9.35087 -81.5875
rradius 32.1666
rwrist 8.96698
rhand -9.5699 -1.78244
rfingers 7.12502
rthumb 16.3978 -31.1093
lclavicle -1.61016e-014 -1.31198e-014
lhumerus -54.0286 11.9369 61.3899
lradius 30.234
lwrist 24.6072
lhand -9.78971 9.27194
lfingers 7.12502
lthumb 16.1861 38.6162
rfemur 6.23825 18.5569 23.8925
rtibia 43.5936
rfoot -7.42191 -7.62593
rtoes -2.26266
lfemur -5.31435 6.1829 -8.01971
ltibia 22.5921
lfoot -13.2047 -0.137111
ltoes -5.14778
1571
root -25.8794 16.6203 12.4338 521.933 -72.6805 -525.26
lowerback 5.53072 -2.69717 -1.15017
upperback -2.0693 -3.66943 0.522753
thorax -5.13847 -1.77146 1.5458
lowerneck 8.50021 -9.15929 -6.52445
upperneck 0.236587 -12.8307 7.21726
head -0.436897 -6.5958 3.76031
rclavicle 3.57812e-015 -4.37326e-015
rhumerus -37.9001 9.14623 -81.2149
rradius 32.2729
rwrist 8.86939
rhand -9.61208 -1.82846
rfingers 7.12502
rthumb 16.3572 -31.1587
lclavicle 3.57812e-015 -4.37326e-015
lhumerus -53.8275 11.5572 60.8621
lradius 30.4393
lwrist 24.6523
lhand -9.90769 9.28758
lfingers 7.12502
lthumb 16.0725 38.641
rfemur 5.31659 18.3785 23.4806
rtibia 44.9566
rfoot -6.653 -7.89519
rtoes -1.67574
lfemur -4.62851 6.41997 -8.17825
ltibia 22.247
lfoot -13.2133 0.671611
ltoes -5.1083
1572
root -25.9431 16.6307 12.4608 522.896 -71.7463 -526.248
lowerback 5.82666 -2.75264 -1.42323
upperback -2.15038 -3.77272 0.453416
thorax -5.37584 -1.81045 1.65582
lowerneck 8.46642 -8.94721 -6.42983
upperneck 0.270197 -12.5423 7.32516
head -0.44164 -6.4553 3.77717
rclavicle -8.12532e-014 -7.95139e-015
rhumerus -38.0987 8.96808 -80.8646
rradius 32.3641
rwrist 8.77561
rhand -9.6437 -1.86544
rfingers 7.12502
rthumb 16.3267 -31.1982
lclavicle -8.12532e-014 -7.95139e-015
lhumerus -53.5989 11.1886 60.3243
lradius 30.6364
lwrist 24.7621
lhand -10.0993 9.27596
lfingers 7.12502
lthumb 15.888 38.6442
rfemur 4.36425 18.1448 23.047
rtibia 46.3429
rfoot -5.83569 -8.24356
rtoes -1.11567
lfemur -3.92711 6.6816 -8.35573
ltibia 21.8782
lfoot -13.2359 1.42766
ltoes -5.19324
1573
root -26.0053 16.64 12.4871 523.8 -70.819 -527.185
lowerback 6.11203 -2.80496 -1.70737
upperback -2.22636 -3.87547 0.376514
thorax -5.60145 -1.84831 1.7641
lowerneck 8.45537 -8.72282 -6.35093
upperneck 0.292583 -12.2401 7.46189
head -0.452304 -6.30901 3.8084
rclavicle 4.48756e-014 1.47101e-014
rhumerus -38.2785 8.78994 -80.5266
rradius 32.438
rwrist 8.68105
rhand -9.71085 -1.84847
rfingers 7.12502
rthumb 16.2621 -31.1865
lclavicle 4.48756e-014 1.47101e-014
lhumerus -53.3414 10.8062 59.7863
lradius 30.8013
lwrist 24.923
lhand -10.3484 9.20069
lfingers 7.12502
lthumb 15.6482 38.5878
rfemur 3.38488 17.8558 22.5992
rtibia 47.7517
rfoot -5.01651 -8.68233
rtoes -0.435365
lfemur -3.22085 6.96139 -8.54913
ltibia 21.4881
lfoot -13.2697 2.1317
ltoes -5.36268
1574
root -26.0659 16.6484 12.5126 524.662 -69.9033 -528.087
lowerback 6.38129 -2.8544 -2.00776
upperback -2.29361 -3.97847 0.290575
thorax -5.808 -1.88549 1.8715
lowerneck 8.45318 -8.4892 -6.27977
upperneck 0.311877 -11.9269 7.6175
head -0.46496 -6.15798 3.84799
rclavicle 2.80783e-014 -4.77083e-015
rhumerus -38.4301 8.58971 -80.1965
rradius 32.478
rwrist 8.60917
rhand -9.82569 -1.76624
rfingers 7.12502
rthumb 16.1515 -31.1133
lclavicle 2.80783e-014 -4.77083e-015
lhumerus -53.0424 10.4335 59.2254
lradius 30.9239
lwrist 25.0584
lhand -10.579 9.09093
lfingers 7.12502
lthumb 15.4261 38.4953
rfemur 2.38313 17.5078 22.1353
rtibia 49.1765
rfoot -4.20485 -9.21715
rtoes 0.392494
lfemur -2.51117 7.2464 -8.76375
ltibia 21.0787
lfoot -13.3126 2.79357
ltoes -5.52583
1575
root -26.1253 16.6559 12.537 525.435 -68.999 -528.905
lowerback 6.62729 -2.90527 -2.30542
upperback -2.34718 -4.08506 0.201242
thorax -5.9868 -1.92455 1.97293
lowerneck 8.45526 -8.24938 -6.21277
upperneck 0.323019 -11.6057 7.78476
head -0.481035 -6.00334 3.89276
rclavicle 1.08238e-013 9.54166e-015
rhumerus -38.5601 8.38026 -79.882
rradius 32.5105
rwrist 8.56659
rhand -9.97976 -1.66498
rfingers 7.12502
rthumb 16.0031 -31.024
lclavicle 1.08238e-013 9.54166e-015
lhumerus -52.6948 10.0927 58.6284
lradius 30.9974
lwrist 25.1417
lhand -10.7664 8.93232
lfingers 7.12502
lthumb 15.2456 38.3505
rfemur 1.36287 17.101 21.685
rtibia 50.6075
rfoot -3.40453 -9.87224
rtoes 1.28604
lfemur -1.80151 7.533 -8.97879
ltibia 20.6519
lfoot -13.3619 3.43383
ltoes -5.65397
1576
root -26.1836 16.6627 12.5603 526.131 -68.1085 -529.654
lowerback 6.8471 -2.95705 -2.59974
upperback -2.38301 -4.19406 0.106614
thorax -6.13201 -1.96532 2.06545
lowerneck 8.44087 -7.99923 -6.15011
upperneck 0.347975 -11.2712 7.95846
head -0.490566 -5.84207 3.93884
rclavicle -5.06901e-014 6.36111e-015
rhumerus -38.6675 8.15011 -79.5818
rradius 32.5359
rwrist 8.55003
rhand -10.1402 -1.56419
rfingers 7.12502
rthumb 15.8486 -30.9355
lclavicle -5.06901e-014 6.36111e-015
lhumerus -52.297 9.78929 57.9944
lradius 31.0255
lwrist 25.1546
lhand -10.9192 8.73917
lfingers 7.12502
lthumb 15.0983 38.1685
rfemur 0.330068 16.6253 21.2445
rtibia 52.0343
rfoot -2.61518 -10.6456
rtoes 2.29888
lfemur -1.0798 7.81654 -9.1962
ltibia 20.196
lfoot -13.4139 4.06438
ltoes -5.71191
1577
root -26.2414 16.6693 12.5826 526.744 -67.2225 -530.324
lowerback 7.03754 -3.00988 -2.88182
upperback -2.4009 -4.30391 0.0112473
thorax -6.24185 -2.00756 2.14835
lowerneck 8.41855 -7.74803 -6.0766
upperneck 0.362639 -10.9332 8.12683
head -0.503709 -5.67869 3.98095
rclavicle -1.99779e-014 -1.59028e-015
rhumerus -38.7782 7.94995 -79.3139
rradius 32.6027
rwrist 8.51198
rhand -10.2823 -1.48833
rfingers 7.12502
rthumb 15.7118 -30.8705
lclavicle -1.99779e-014 -1.59028e-015
lhumerus -51.8648 9.52977 57.3287
lradius 31.0358
lwrist 25.0961
lhand -11.0324 8.56792
lfingers 7.12502
lthumb 14.9893 38.0054
rfemur -0.721475 16.0728 20.8169
rtibia 53.4463
rfoot -1.8047 -11.5382
rtoes 3.36194
lfemur -0.340907 8.09063 -9.40976
ltibia 19.7002
lfoot -13.4646 4.70415
ltoes -5.68162
1578
root -26.2987 16.6758 12.6045 527.343 -66.3632 -530.988
lowerback 7.19821 -3.06827 -3.17413
upperback -2.39862 -4.42286 -0.0948361
thorax -6.31239 -2.05502 2.22438
lowerneck 8.3692 -7.4965 -5.9795
upperneck 0.378815 -10.5911 8.27741
head -0.514584 -5.51228 4.01081
rclavicle -4.34344e-014 6.36111e-015
rhumerus -38.8844 7.77708 -79.0769
rradius 32.6999
rwrist 8.45602
rhand -10.3942 -1.43235
rfingers 7.12502
rthumb 15.6041 -30.8229
lclavicle -4.34344e-014 6.36111e-015
lhumerus -51.4053 9.31315 56.6369
lradius 31.0503
lwrist 24.9787
lhand -11.1091 8.45733
lfingers 7.12502
lthumb 14.9154 37.9003
rfemur -1.79368 15.4132 20.3629
rtibia 54.8383
rfoot -0.934984 -12.54
rtoes 4.29133
lfemur 0.419035 8.35279 -9.65585
ltibia 19.1541
lfoot -13.5043 5.35055
ltoes -5.60775
